<svg width="561" height="355" viewBox="0 0 561 355" fill="none" xmlns="http://www.w3.org/2000/svg" xmlns:xlink="http://www.w3.org/1999/xlink">
<rect x="1" y="1" width="559" height="353" rx="29" fill="#1B16FF" stroke="url(#paint0_linear_3_2275)" stroke-width="2"/>
<mask id="mask0_3_2275" style="mask-type:alpha" maskUnits="userSpaceOnUse" x="0" y="0" width="561" height="355">
<rect width="561" height="355" rx="30" fill="#16084C"/>
</mask>
<g mask="url(#mask0_3_2275)">
<path opacity="0.4" d="M433.639 -50.2198L260.78 122.64C232.183 151.237 232.183 197.602 260.78 226.2L433.64 399.059C462.237 427.657 508.602 427.657 537.199 399.059L710.059 226.2C738.656 197.602 738.656 151.237 710.059 122.64L537.2 -50.2198C508.602 -78.8171 462.237 -78.8171 433.639 -50.2198Z" fill="#FEFEFE" fill-opacity="0.25"/>
<path opacity="0.4" d="M554.479 -68.0596L367.731 118.689C336.836 149.584 336.836 199.675 367.731 230.57L554.479 417.318C585.374 448.213 635.465 448.213 666.36 417.318L853.109 230.57C884.004 199.675 884.004 149.584 853.109 118.689L666.36 -68.0596C635.465 -98.9547 585.374 -98.9546 554.479 -68.0596Z" fill="#FEFEFE" fill-opacity="0.25"/>
<path opacity="0.4" d="M667.667 -67.2469L481.544 118.876C450.752 149.668 450.752 199.591 481.544 230.382L667.667 416.505C698.458 447.297 748.381 447.297 779.173 416.505L965.296 230.382C996.087 199.591 996.087 149.668 965.296 118.876L779.173 -67.2469C748.381 -98.0385 698.458 -98.0385 667.667 -67.2469Z" fill="#FEFEFE" fill-opacity="0.35"/>
<rect x="-2" y="0.233398" width="568" height="355" fill="url(#pattern0)" fill-opacity="0.2"/>
</g>
</svg>
